<svg xmlns="http://www.w3.org/2000/svg" viewBox="0 0 1200 700" role="img" aria-labelledby="title desc">
  <title id="title">Un tour de boucle Event Loop</title>
  <desc id="desc">Schéma montrant qu'un tour de boucle traite une macrotask puis vide les microtasks, avec une durée variable selon la charge.</desc>
  <defs>
    <style>
      .bg{fill:#f8fbff}
      .title{font:700 34px Arial, sans-serif;fill:#0b63b7}
      .sub{font:400 20px Arial, sans-serif;fill:#334155}
      .box{fill:#ffffff;stroke:#93c5fd;stroke-width:3;rx:16}
      .box2{fill:#ecfeff;stroke:#06b6d4;stroke-width:3;rx:16}
      .box3{fill:#fef9c3;stroke:#eab308;stroke-width:3;rx:16}
      .txt{font:600 21px Arial, sans-serif;fill:#0f172a}
      .small{font:400 18px Arial, sans-serif;fill:#334155}
      .note{font:600 19px Arial, sans-serif;fill:#7c2d12}
      .arrow{stroke:#0f172a;stroke-width:4;fill:none;marker-end:url(#m)}
      .dash{stroke:#64748b;stroke-width:3;fill:none;stroke-dasharray:8 8}
    </style>
    <marker id="m" markerWidth="10" markerHeight="10" refX="9" refY="5" orient="auto">
      <path d="M0,0 L10,5 L0,10 z" fill="#0f172a" />
    </marker>
  </defs>

  <rect class="bg" x="0" y="0" width="1200" height="700"/>
  <text class="title" x="60" y="62">Event Loop : un tour de boucle</text>
  <text class="sub" x="60" y="96">Ce n'est pas une roue à vitesse fixe. Durée variable selon le travail à exécuter.</text>

  <rect class="box" x="70" y="150" width="320" height="130"/>
  <text class="txt" x="92" y="198">1) Prendre une tâche prête</text>
  <text class="small" x="92" y="232">Ex: timer, callback I/O, setImmediate</text>

  <rect class="box2" x="440" y="150" width="320" height="130"/>
  <text class="txt" x="462" y="198">2) Exécuter le callback</text>
  <text class="small" x="462" y="232">Le code sync de cette tâche s'exécute</text>

  <rect class="box3" x="810" y="150" width="320" height="130"/>
  <text class="txt" x="832" y="198">3) Vider les microtasks</text>
  <text class="small" x="832" y="232">Promise.then, await, queueMicrotask</text>

  <path class="arrow" d="M390 215 L435 215"/>
  <path class="arrow" d="M760 215 L805 215"/>

  <path class="dash" d="M970 300 C1070 340, 1070 430, 970 470"/>
  <path class="arrow" d="M970 470 L230 470"/>
  <path class="arrow" d="M230 470 L230 290"/>
  <text class="small" x="838" y="336">Tour suivant</text>

  <rect class="box" x="70" y="530" width="1060" height="120"/>
  <text class="note" x="92" y="575">Important :</text>
  <text class="small" x="205" y="575">setTimeout(..., 0) signifie "prochain tour", pas "tout de suite".</text>
  <text class="small" x="92" y="610">Si le callback courant est lourd (CPU), ce tour dure plus longtemps et retarde tout le reste.</text>
</svg>
